<?xml version="1.0" encoding="UTF-8"?>
<svg id="Layer_1" data-name="Layer 1" xmlns="http://www.w3.org/2000/svg" viewBox="0 0 2000 2000">
  <defs>
    <style>
      .cls-1 {
        fill: #ffffd0;
      }

      .cls-1, .cls-2 {
        stroke-width: 0px;
      }

      .cls-2 {
        fill: #ff8b00;
      }
    </style>
  </defs>
  <path class="cls-2" d="m1053.61,1667.18c-35.68-370.02-314.05-657.99-652.14-657.99-1.02,0-2.03.01-3.05.02,0,.33,0,.66,0,.98,0,364.55,295.53,660.08,660.08,660.08s660.08-295.53,660.08-660.08c0-.28,0-.56,0-.84-4.27-.1-8.54-.16-12.82-.16-338.09,0-616.46,287.98-652.14,657.99Z"/>
  <path class="cls-2" d="m1053.61,350.14c-361.6,2.63-654.04,295.99-655.17,657.95,1.01,0,2.03.02,3.04.02,338.08,0,616.41-287.96,652.13-657.96Z"/>
  <path class="cls-2" d="m1705.75,1008.1c4.28,0,8.55-.06,12.82-.16-1.21-363.52-296.26-657.84-660.06-657.84-1.63,0-3.26.02-4.89.03,35.72,370,314.06,657.96,652.13,657.96Z"/>
  <path class="cls-1" d="m1724.74,1007.78c-2.06.07-4.12.12-6.18.17-4.26.1-8.53.16-12.82.16-338.08,0-616.41-287.96-652.13-657.96,0-.01,0-.02,0-.03,0,.01,0,.02,0,.03-35.72,370-314.06,657.96-652.13,657.96-1.01,0-2.03-.01-3.04-.02-2.84-.02-5.68-.05-8.5-.1v1.33c2.81-.06,5.65-.09,8.49-.1,1.02,0,2.03-.02,3.05-.02,338.09,0,616.46,287.98,652.14,657.99,35.68-370.02,314.05-657.99,652.14-657.99,4.29,0,8.56.06,12.82.16,2.06.05,4.12.1,6.17.17v-1.73Z"/>
</svg>